<?xml version="1.0" encoding="UTF-8"?>
<svg xmlns="http://www.w3.org/2000/svg" width="900" height="980" viewBox="0 0 900 980">
  <defs><marker id="arr" markerWidth="6" markerHeight="6" refX="3" refY="3" orient="auto"><path d="M0,0 L0,6 L6,3z" fill="#555"/></marker></defs>
  <rect width="900" height="980" fill="white"/>
  <!-- zone fills -->
  <rect x="174" y="79" width="248" height="175" fill="#d6eef9" fill-opacity="0.45" rx="0"/>
  <rect x="69" y="79" width="105" height="175" fill="#edf2f7" fill-opacity="0.55" rx="0"/>
  <rect x="422" y="79" width="123" height="175" fill="#fdebd0" fill-opacity="0.5" rx="0"/>
  <rect x="69" y="254" width="224" height="245" fill="#e8d5f0" fill-opacity="0.35" rx="0"/>
  <rect x="293" y="254" width="126" height="245" fill="#fef9c3" fill-opacity="0.45" rx="0"/>
  <rect x="419" y="254" width="126" height="245" fill="#dcf0dc" fill-opacity="0.4" rx="0"/>
  <rect x="69" y="499" width="476" height="112" fill="#ebebeb" fill-opacity="0.55" rx="0"/>
  <!-- external walls -->
  <rect x="55" y="65" width="206" height="14" fill="#2c2c2c" rx="0"/>
  <rect x="296" y="65" width="263" height="14" fill="#2c2c2c" rx="0"/>
  <rect x="55" y="611" width="504" height="14" fill="#2c2c2c" rx="0"/>
  <rect x="55" y="65" width="14" height="560" fill="#2c2c2c" rx="0"/>
  <rect x="545" y="65" width="14" height="560" fill="#2c2c2c" rx="0"/>
  <line x1="261" y1="79" x2="292" y2="79" stroke="#555" stroke-width="1.5"/>
  <path d="M 261 79 A 31 31 0 0 1 292 110" fill="none" stroke="#999" stroke-width="1" stroke-dasharray="3,2"/>
  <!-- zone 1/2 partition -->
  <rect x="69" y="254" width="105" height="6" fill="#3d3d3d" rx="0"/>
  <line x1="174" y1="257" x2="422" y2="257" stroke="#c5c5c5" stroke-width="2" stroke-dasharray="10,5"/>
  <rect x="422" y="254" width="123" height="6" fill="#3d3d3d" rx="0"/>
  <!-- reception counter wall -->
  <rect x="174" y="79" width="6" height="98" fill="#3d3d3d" rx="0"/>
  <rect x="77" y="97" width="75" height="28" fill="none" stroke="#aaa" stroke-width="1.5"/>
  <text x="116" y="115" text-anchor="middle" style="font-family:Arial;font-size:7px;font-weight:normal;fill:#888">DESK</text>
  <!-- lounge/collection wall -->
  <rect x="422" y="79" width="6" height="105" fill="#3d3d3d" rx="0"/>
  <rect x="422" y="184" width="8" height="33" fill="white" rx="0"/>
  <rect x="422" y="215" width="6" height="39" fill="#3d3d3d" rx="0"/>
  <line x1="425" y1="184" x2="425" y2="215" stroke="#555" stroke-width="1.5"/>
  <path d="M 425 184 A 31 31 0 0 0 394 184" fill="none" stroke="#999" stroke-width="1" stroke-dasharray="3,2"/>
  <!-- treatment vertical walls -->
  <rect x="181" y="254" width="6" height="245" fill="#3d3d3d" rx="0"/>
  <rect x="181" y="296" width="8" height="33" fill="white" rx="0"/>
  <line x1="184" y1="296" x2="184" y2="327" stroke="#555" stroke-width="1.5"/>
  <path d="M 184 296 A 31 31 0 0 1 215 296" fill="none" stroke="#999" stroke-width="1" stroke-dasharray="3,2"/>
  <rect x="181" y="418" width="8" height="33" fill="white" rx="0"/>
  <line x1="184" y1="418" x2="184" y2="449" stroke="#555" stroke-width="1.5"/>
  <path d="M 184 418 A 31 31 0 0 1 215 418" fill="none" stroke="#999" stroke-width="1" stroke-dasharray="3,2"/>
  <rect x="293" y="254" width="6" height="245" fill="#3d3d3d" rx="0"/>
  <rect x="293" y="296" width="8" height="33" fill="white" rx="0"/>
  <line x1="296" y1="296" x2="296" y2="327" stroke="#555" stroke-width="1.5"/>
  <path d="M 296 327 A 31 31 0 0 1 265 327" fill="none" stroke="#999" stroke-width="1" stroke-dasharray="3,2"/>
  <rect x="293" y="418" width="8" height="33" fill="white" rx="0"/>
  <line x1="296" y1="418" x2="296" y2="449" stroke="#555" stroke-width="1.5"/>
  <path d="M 296 449 A 31 31 0 0 1 265 449" fill="none" stroke="#999" stroke-width="1" stroke-dasharray="3,2"/>
  <rect x="419" y="254" width="6" height="245" fill="#3d3d3d" rx="0"/>
  <rect x="69" y="376" width="224" height="6" fill="#3d3d3d" rx="0"/>
  <!-- zone 2/3 partition -->
  <rect x="69" y="499" width="476" height="6" fill="#3d3d3d" rx="0"/>
  <rect x="83" y="499" width="33" height="8" fill="white" rx="0"/>
  <line x1="83" y1="502" x2="114" y2="502" stroke="#555" stroke-width="1.5"/>
  <path d="M 83 502 A 31 31 0 0 1 83 533" fill="none" stroke="#999" stroke-width="1" stroke-dasharray="3,2"/>
  <rect x="363" y="499" width="33" height="8" fill="white" rx="0"/>
  <line x1="363" y1="502" x2="394" y2="502" stroke="#555" stroke-width="1.5"/>
  <path d="M 363 502 A 31 31 0 0 1 363 533" fill="none" stroke="#999" stroke-width="1" stroke-dasharray="3,2"/>
  <!-- back zone verticals -->
  <rect x="184" y="499" width="6" height="118" fill="#3d3d3d" rx="0"/>
  <rect x="254" y="499" width="6" height="118" fill="#3d3d3d" rx="0"/>
  <rect x="324" y="499" width="6" height="118" fill="#3d3d3d" rx="0"/>
  <rect x="394" y="499" width="6" height="118" fill="#3d3d3d" rx="0"/>
  <rect x="194" y="499" width="33" height="8" fill="white" rx="0"/>
  <line x1="194" y1="502" x2="225" y2="502" stroke="#555" stroke-width="1.5"/>
  <path d="M 194 502 A 31 31 0 0 1 194 533" fill="none" stroke="#999" stroke-width="1" stroke-dasharray="3,2"/>
  <rect x="264" y="499" width="33" height="8" fill="white" rx="0"/>
  <line x1="264" y1="502" x2="295" y2="502" stroke="#555" stroke-width="1.5"/>
  <path d="M 264 502 A 31 31 0 0 1 264 533" fill="none" stroke="#999" stroke-width="1" stroke-dasharray="3,2"/>
  <rect x="334" y="499" width="33" height="8" fill="white" rx="0"/>
  <line x1="334" y1="502" x2="365" y2="502" stroke="#555" stroke-width="1.5"/>
  <path d="M 334 502 A 31 31 0 0 1 334 533" fill="none" stroke="#999" stroke-width="1" stroke-dasharray="3,2"/>
  <!-- furniture: GTT Lounge open plan -->
  <rect x="213" y="97" width="70" height="26" fill="none" stroke="#aaa" stroke-width="1.5"/>
  <rect x="313" y="97" width="70" height="26" fill="none" stroke="#aaa" stroke-width="1.5"/>
  <rect x="263" y="131" width="70" height="32" fill="none" stroke="#aaa" stroke-width="1.5"/>
  <rect x="213" y="175" width="70" height="26" fill="none" stroke="#aaa" stroke-width="1.5"/>
  <rect x="313" y="175" width="70" height="26" fill="none" stroke="#aaa" stroke-width="1.5"/>
  <rect x="183" y="101" width="22" height="18" fill="none" stroke="#aaa" stroke-width="1.5"/>
  <rect x="391" y="101" width="22" height="18" fill="none" stroke="#aaa" stroke-width="1.5"/>
  <rect x="374" y="87" width="40" height="55" fill="none" stroke="#aaa" stroke-width="1.5"/>
  <text x="394" y="119" text-anchor="middle" style="font-family:Arial;font-size:7px;font-weight:normal;fill:#999">SNACK
STATION</text>
  <rect x="270" y="85" width="56" height="9" fill="none" stroke="#aaa" stroke-width="1.5"/>
  <!-- furniture: collection room -->
  <rect x="430" y="91" width="28" height="52" fill="none" stroke="#aaa" stroke-width="1.5"/>
  <circle cx="444" cy="90" r="9" fill="none" stroke="#aaa" stroke-width="1.5"/>
  <rect x="472" y="91" width="28" height="52" fill="none" stroke="#aaa" stroke-width="1.5"/>
  <circle cx="486" cy="90" r="9" fill="none" stroke="#aaa" stroke-width="1.5"/>
  <rect x="430" y="151" width="113" height="20" fill="none" stroke="#aaa" stroke-width="1.5"/>
  <rect x="430" y="151" width="107" height="20" fill="none" stroke="#aaa" stroke-width="1.5"/>
  <circle cx="483" cy="191" r="14" fill="none" stroke="#aaa" stroke-width="1.5"/>
  <text x="483" y="195" text-anchor="middle" style="font-family:Arial;font-size:6px;font-weight:normal;fill:#aaa">CTF</text>
  <rect x="517" y="194" width="20" height="20" fill="none" stroke="#aaa" stroke-width="1.5"/>
  <!-- treatment rooms -->
<rect x="111" y="287" width="28" height="56" fill="none" stroke="#aaa" stroke-width="1.5"/>
  <rect x="75" y="354" width="100" height="16" fill="none" stroke="#aaa" stroke-width="1.5"/>
<rect x="111" y="409" width="28" height="56" fill="none" stroke="#aaa" stroke-width="1.5"/>
  <rect x="75" y="477" width="100" height="16" fill="none" stroke="#aaa" stroke-width="1.5"/>
  <rect x="189" y="270" width="96" height="50" fill="none" stroke="#aaa" stroke-width="1.5"/>
  <circle cx="237" cy="330" r="9" fill="none" stroke="#aaa" stroke-width="1.5"/>
  <rect x="189" y="390" width="96" height="42" fill="none" stroke="#aaa" stroke-width="1.5"/>
  <rect x="189" y="440" width="96" height="20" fill="none" stroke="#aaa" stroke-width="1.5"/>
  <!-- nail station -->
  <rect x="303" y="266" width="35" height="28" fill="none" stroke="#aaa" stroke-width="1.5"/>
  <rect x="311" y="299" width="18" height="14" fill="none" stroke="#aaa" stroke-width="1.5"/>
  <rect x="314" y="317" width="12" height="10" fill="none" stroke="#aaa" stroke-width="1.5"/>
  <rect x="343" y="266" width="35" height="28" fill="none" stroke="#aaa" stroke-width="1.5"/>
  <rect x="351" y="299" width="18" height="14" fill="none" stroke="#aaa" stroke-width="1.5"/>
  <rect x="354" y="317" width="12" height="10" fill="none" stroke="#aaa" stroke-width="1.5"/>
  <rect x="383" y="266" width="35" height="28" fill="none" stroke="#aaa" stroke-width="1.5"/>
  <rect x="391" y="299" width="18" height="14" fill="none" stroke="#aaa" stroke-width="1.5"/>
  <rect x="394" y="317" width="12" height="10" fill="none" stroke="#aaa" stroke-width="1.5"/>
  <rect x="301" y="467" width="110" height="18" fill="none" stroke="#aaa" stroke-width="1.5"/>
  <text x="356" y="478" text-anchor="middle" style="font-family:Arial;font-size:7px;font-weight:normal;fill:#999">LEV EXHAUST UNIT</text>
  <line x1="415" y1="476" x2="427" y2="476" stroke="#bbb" stroke-width="1.5" stroke-dasharray="3,2"/>
  <!-- hairdressing -->
  <rect x="425" y="270" width="36" height="20" fill="none" stroke="#aaa" stroke-width="1.5"/>
  <circle cx="443" cy="281" r="8" fill="none" stroke="#aaa" stroke-width="1.5"/>
  <rect x="425" y="298" width="36" height="20" fill="none" stroke="#aaa" stroke-width="1.5"/>
  <circle cx="443" cy="309" r="8" fill="none" stroke="#aaa" stroke-width="1.5"/>
  <rect x="497" y="268" width="34" height="52" fill="none" stroke="#aaa" stroke-width="1.5"/>
  <rect x="495" y="262" width="38" height="9" fill="none" stroke="#aaa" stroke-width="1.5"/>
  <rect x="497" y="334" width="34" height="52" fill="none" stroke="#aaa" stroke-width="1.5"/>
  <rect x="495" y="328" width="38" height="9" fill="none" stroke="#aaa" stroke-width="1.5"/>
  <rect x="429" y="459" width="106" height="16" fill="none" stroke="#aaa" stroke-width="1.5"/>
  <!-- back zone -->
  <rect x="75" y="511" width="103" height="28" fill="none" stroke="#aaa" stroke-width="1.5"/>
  <circle cx="114" cy="532" r="7" fill="none" stroke="#aaa" stroke-width="1.5"/><circle cx="126" cy="532" r="7" fill="none" stroke="#aaa" stroke-width="1.5"/><circle cx="138" cy="532" r="7" fill="none" stroke="#aaa" stroke-width="1.5"/>
  <rect x="205" y="513" width="28" height="18" fill="none" stroke="#aaa" stroke-width="1.5"/>
  <circle cx="219" cy="539" r="8" fill="none" stroke="#aaa" stroke-width="1.5"/>
  <rect x="275" y="513" width="28" height="18" fill="none" stroke="#aaa" stroke-width="1.5"/>
  <circle cx="289" cy="539" r="8" fill="none" stroke="#aaa" stroke-width="1.5"/>
  <rect x="400" y="509" width="139" height="14" fill="none" stroke="#aaa" stroke-width="1.5"/>
  <rect x="400" y="531" width="139" height="14" fill="none" stroke="#aaa" stroke-width="1.5"/>
  <rect x="400" y="553" width="139" height="14" fill="none" stroke="#aaa" stroke-width="1.5"/>
  <!-- room labels -->
  <text x="121" y="166" text-anchor="middle" style="font-family:Arial;font-size:10px;font-weight:bold;fill:#111">RECEPTION</text>
  <text x="121" y="180" text-anchor="middle" style="font-family:Arial;font-size:8px;font-weight:normal;fill:#666">~15 sqm</text>
  <text x="298" y="217" text-anchor="middle" style="font-family:Arial;font-size:11px;font-weight:bold;fill:#1a5276">GTT LOUNGE</text>
  <text x="298" y="232" text-anchor="middle" style="font-family:Arial;font-size:8px;font-weight:normal;fill:#2471a3">~35 sqm | OPEN PLAN</text>
  <text x="298" y="244" text-anchor="middle" style="font-family:Arial;font-size:8px;font-weight:normal;fill:#7fb3d3">Seating for 8 · snack station · natural light</text>
  <text x="483" y="184" text-anchor="middle" style="font-family:Arial;font-size:9px;font-weight:bold;fill:#7d3c0a">BLOOD COLLECTION</text>
  <text x="483" y="196" text-anchor="middle" style="font-family:Arial;font-size:8px;font-weight:normal;fill:#a04000">ROOM  ~18 sqm</text>
  <text x="483" y="208" text-anchor="middle" style="font-family:Arial;font-size:7px;font-weight:normal;fill:#bb6820">2 chairs · centrifuge</text>
  <text x="125" y="311" text-anchor="middle" style="font-family:Arial;font-size:10px;font-weight:bold;fill:#111">MASSAGE 1</text>
  <text x="125" y="325" text-anchor="middle" style="font-family:Arial;font-size:8px;font-weight:normal;fill:#666">~12 sqm</text>
  <text x="125" y="433" text-anchor="middle" style="font-family:Arial;font-size:10px;font-weight:bold;fill:#111">MASSAGE 2</text>
  <text x="125" y="447" text-anchor="middle" style="font-family:Arial;font-size:8px;font-weight:normal;fill:#666">~12 sqm</text>
  <text x="237" y="311" text-anchor="middle" style="font-family:Arial;font-size:10px;font-weight:bold;fill:#111">FACIAL /</text>
  <text x="237" y="325" text-anchor="middle" style="font-family:Arial;font-size:8px;font-weight:normal;fill:#666">~11 sqm</text>
  <text x="237" y="325" text-anchor="middle" style="font-family:Arial;font-size:10px;font-weight:bold;fill:#111">BEAUTY</text>
  <text x="237" y="433" text-anchor="middle" style="font-family:Arial;font-size:10px;font-weight:bold;fill:#111">BROWS /</text>
  <text x="237" y="447" text-anchor="middle" style="font-family:Arial;font-size:8px;font-weight:normal;fill:#666">~11 sqm</text>
  <text x="237" y="447" text-anchor="middle" style="font-family:Arial;font-size:10px;font-weight:bold;fill:#111">LASHES</text>
  <text x="356" y="368" text-anchor="middle" style="font-family:Arial;font-size:10px;font-weight:bold;fill:#111">NAIL STATION</text>
  <text x="356" y="382" text-anchor="middle" style="font-family:Arial;font-size:8px;font-weight:normal;fill:#666">~24 sqm</text>
  <text x="356" y="384" text-anchor="middle" style="font-family:Arial;font-size:8px;font-weight:normal;fill:#999">3 stations · LEV extract</text>
  <text x="482" y="368" text-anchor="middle" style="font-family:Arial;font-size:10px;font-weight:bold;fill:#111">HAIRDRESSING</text>
  <text x="482" y="382" text-anchor="middle" style="font-family:Arial;font-size:8px;font-weight:normal;fill:#666">~22 sqm</text>
  <text x="482" y="384" text-anchor="middle" style="font-family:Arial;font-size:8px;font-weight:normal;fill:#999">2 basins · 2 styling chairs</text>
  <text x="126" y="555" text-anchor="middle" style="font-family:Arial;font-size:9px;font-weight:bold;fill:#111">STAFF</text>
  <text x="126" y="568" text-anchor="middle" style="font-family:Arial;font-size:9px;font-weight:bold;fill:#111">ROOM</text>
  <text x="219" y="555" text-anchor="middle" style="font-family:Arial;font-size:9px;font-weight:bold;fill:#111">WC</text>
  <text x="289" y="550" text-anchor="middle" style="font-family:Arial;font-size:9px;font-weight:bold;fill:#111">WC</text>
  <text x="289" y="564" text-anchor="middle" style="font-family:Arial;font-size:8px;font-weight:normal;fill:#555">ACC.</text>
  <text x="359" y="555" text-anchor="middle" style="font-family:Arial;font-size:8px;font-weight:bold;fill:#111">STAFF WC</text>
  <text x="469" y="555" text-anchor="middle" style="font-family:Arial;font-size:9px;font-weight:bold;fill:#111">STORE /</text>
  <text x="469" y="568" text-anchor="middle" style="font-family:Arial;font-size:9px;font-weight:bold;fill:#111">LINEN</text>
  <!-- dimensions -->
  <line x1="55" y1="45" x2="559" y2="45" stroke="#555" stroke-width="1" marker-start="url(#arr)" marker-end="url(#arr)"/>
  <text x="307" y="40" text-anchor="middle" style="font-family:Arial;font-size:9px;font-weight:normal;fill:#444">13.6 m</text>
  <line x1="55" y1="39" x2="55" y2="69" stroke="#666" stroke-width="0.8"/>
  <line x1="559" y1="39" x2="559" y2="69" stroke="#666" stroke-width="0.8"/>
  <line x1="581" y1="65" x2="581" y2="625" stroke="#555" stroke-width="1" marker-start="url(#arr)" marker-end="url(#arr)"/>
  <text x="599" y="349" text-anchor="middle" transform="rotate(90,599,345)" style="font-family:Arial;font-size:9px;fill:#444">15.2 m</text>
  <line x1="577" y1="65" x2="607" y2="65" stroke="#666" stroke-width="0.8"/>
  <line x1="577" y1="625" x2="607" y2="625" stroke="#666" stroke-width="0.8"/>
  <text x="678" y="75" text-anchor="middle" style="font-family:Arial;font-size:11px;font-weight:bold;fill:#111">ZONE LEGEND</text>
  <rect x="618" y="93" width="16" height="13" fill="#d6eef9" opacity="0.7" stroke="#aaa" stroke-width="0.8"/>
  <text x="640" y="104" text-anchor="start" style="font-family:Arial;font-size:9px;font-weight:normal;fill:#333">GTT Lounge (open plan)</text>
  <rect x="618" y="115" width="16" height="13" fill="#fdebd0" opacity="0.7" stroke="#aaa" stroke-width="0.8"/>
  <text x="640" y="126" text-anchor="start" style="font-family:Arial;font-size:9px;font-weight:normal;fill:#333">Blood Collection Room</text>
  <rect x="618" y="137" width="16" height="13" fill="#e8d5f0" opacity="0.7" stroke="#aaa" stroke-width="0.8"/>
  <text x="640" y="148" text-anchor="start" style="font-family:Arial;font-size:9px;font-weight:normal;fill:#333">Treatment Rooms</text>
  <rect x="618" y="159" width="16" height="13" fill="#fef9c3" opacity="0.7" stroke="#aaa" stroke-width="0.8"/>
  <text x="640" y="170" text-anchor="start" style="font-family:Arial;font-size:9px;font-weight:normal;fill:#333">Nail Station</text>
  <rect x="618" y="181" width="16" height="13" fill="#dcf0dc" opacity="0.7" stroke="#aaa" stroke-width="0.8"/>
  <text x="640" y="192" text-anchor="start" style="font-family:Arial;font-size:9px;font-weight:normal;fill:#333">Hairdressing</text>
  <rect x="618" y="203" width="16" height="13" fill="#ebebeb" opacity="0.7" stroke="#aaa" stroke-width="0.8"/>
  <text x="640" y="214" text-anchor="start" style="font-family:Arial;font-size:9px;font-weight:normal;fill:#333">Staff / WC / Storage</text>
  <text x="678" y="235" text-anchor="middle" style="font-family:Arial;font-size:10px;font-weight:bold;fill:#111">CONVENTIONS</text>
  <line x1="618" y1="249" x2="649" y2="249" stroke="#555" stroke-width="1.5"/>
  <path d="M 618 249 A 31 31 0 0 1 618 280" fill="none" stroke="#999" stroke-width="1" stroke-dasharray="3,2"/>
  <text x="658" y="257" text-anchor="start" style="font-family:Arial;font-size:9px;font-weight:normal;fill:#444">Door + swing arc</text>
  <line x1="618" y1="293" x2="658" y2="293" stroke="#c5c5c5" stroke-width="2" stroke-dasharray="10,5"/>
  <text x="666" y="297" text-anchor="start" style="font-family:Arial;font-size:9px;font-weight:normal;fill:#444">Open zone threshold</text>
  <circle cx="680" cy="360" r="16" fill="none" stroke="#333" stroke-width="1.5"/>
  <line x1="680" y1="375" x2="680" y2="343" stroke="#333" stroke-width="2" marker-end="url(#arr)"/>
  <text x="680" y="395" text-anchor="middle" style="font-family:Arial;font-size:13px;font-weight:bold;fill:#111">N</text>
  <text x="618" y="430" text-anchor="start" style="font-family:Arial;font-size:9px;font-weight:normal;fill:#555">SCALE 1:50</text>
  <rect x="618" y="437" width="70" height="7" fill="#333" stroke="#333" stroke-width="0.8"/>
  <rect x="688" y="437" width="70" height="7" fill="white" stroke="#333" stroke-width="0.8"/>
  <rect x="758" y="437" width="70" height="7" fill="#333" stroke="#333" stroke-width="0.8"/>
  <text x="618" y="455" text-anchor="middle" style="font-family:Arial;font-size:8px;font-weight:normal;fill:#555">0</text>
  <text x="688" y="455" text-anchor="middle" style="font-family:Arial;font-size:8px;font-weight:normal;fill:#555">2m</text>
  <text x="758" y="455" text-anchor="middle" style="font-family:Arial;font-size:8px;font-weight:normal;fill:#555">4m</text>
  <text x="828" y="455" text-anchor="middle" style="font-family:Arial;font-size:8px;font-weight:normal;fill:#555">6m</text>
  <rect x="55" y="850" width="830" height="70" fill="white" stroke="#333" stroke-width="1.5"/>
  <line x1="55" y1="872" x2="885" y2="872" stroke="#333" stroke-width="1"/>
  <line x1="390" y1="850" x2="390" y2="920" stroke="#333" stroke-width="1"/>
  <line x1="640" y1="850" x2="640" y2="920" stroke="#333" stroke-width="1"/>
  <text x="222" y="865" text-anchor="middle" style="font-family:Arial;font-size:14px;font-weight:bold;fill:#111">GTT CENTER PERTH</text>
  <text x="515" y="865" text-anchor="middle" style="font-family:Arial;font-size:11px;font-weight:bold;fill:#111">ARCHITECTURAL CONCEPT FLOOR PLAN</text>
  <text x="762" y="865" text-anchor="middle" style="font-family:Arial;font-size:9px;font-weight:normal;fill:#555">Drawing: GTT-FP-002</text>
  <text x="60" y="889" text-anchor="start" style="font-family:Arial;font-size:9px;font-weight:normal;fill:#444">Project: GTT Center Perth | Use: Health & Beauty</text>
  <text x="60" y="904" text-anchor="start" style="font-family:Arial;font-size:9px;font-weight:normal;fill:#444">Total ~207 sqm | Scale 1:50 | CONCEPT ONLY — NOT FOR CONSTRUCTION</text>
  <text x="400" y="889" text-anchor="start" style="font-family:Arial;font-size:9px;font-weight:normal;fill:#444">Cole — Architectural Concept Designer</text>
  <text x="400" y="904" text-anchor="start" style="font-family:Arial;font-size:9px;font-weight:normal;fill:#444">Date: 2026-07-08 | Rev v3: open plan + furniture + accessible doors</text>
  <text x="650" y="889" text-anchor="start" style="font-family:Arial;font-size:9px;font-weight:normal;fill:#444">YETI Tipi Holdings PTY LTD</text>
  <text x="650" y="904" text-anchor="start" style="font-family:Arial;font-size:9px;font-weight:normal;fill:#444">as Trustee YETI Holding Trust</text>
  <text x="55" y="934" text-anchor="start" style="font-family:Arial;font-size:9px;font-weight:normal;fill:#888">This drawing is for concept discussion only. Not to be used for construction, regulatory approval, or lease purposes without architect review.</text>
</svg>